<svg width="512" height="512" viewBox="0 0 512 512" fill="none" xmlns="http://www.w3.org/2000/svg">
<rect x="156" y="156" width="201" height="201" rx="20" fill="#111010"/>
<circle cx="156" cy="156" r="75" fill="#FFB6C1"/>
<rect x="252" y="187" width="210" height="15" rx="7.5" fill="#00598A"/>
<rect x="252" y="308" width="210" height="15" rx="7.5" fill="#00598A"/>
<rect x="252" y="217" width="210" height="15" rx="7.5" fill="#6872AB"/>
<rect x="252" y="277" width="210" height="15" rx="7.5" fill="#4D9375"/>
<rect x="252" y="247" width="210" height="15" rx="7.5" fill="#D38691"/>
<circle cx="156.5" cy="356.5" r="40.5" fill="#FFB6C1"/>
<path d="M130.506 363.426C128.983 363.426 127.67 363.065 126.568 362.344C125.466 361.616 124.616 360.574 124.02 359.216C123.423 357.852 123.128 356.213 123.134 354.298C123.139 352.384 123.438 350.759 124.028 349.423C124.625 348.082 125.472 347.062 126.568 346.364C127.67 345.659 128.983 345.307 130.506 345.307C132.028 345.307 133.341 345.659 134.443 346.364C135.551 347.062 136.403 348.082 137 349.423C137.597 350.764 137.892 352.389 137.886 354.298C137.886 356.219 137.588 357.861 136.991 359.224C136.395 360.588 135.545 361.631 134.443 362.352C133.347 363.068 132.034 363.426 130.506 363.426ZM130.506 359.974C131.415 359.974 132.151 359.511 132.713 358.585C133.276 357.653 133.554 356.224 133.548 354.298C133.548 353.037 133.42 351.997 133.165 351.179C132.909 350.355 132.554 349.741 132.099 349.338C131.645 348.935 131.114 348.733 130.506 348.733C129.602 348.733 128.872 349.19 128.315 350.105C127.759 351.014 127.477 352.412 127.472 354.298C127.466 355.577 127.588 356.636 127.838 357.477C128.094 358.318 128.452 358.946 128.912 359.361C129.372 359.77 129.903 359.974 130.506 359.974ZM146.874 345.307C147.828 345.307 148.74 345.463 149.609 345.776C150.479 346.082 151.254 346.574 151.936 347.25C152.618 347.92 153.155 348.804 153.547 349.901C153.939 350.997 154.135 352.335 154.135 353.915C154.141 355.369 153.97 356.673 153.624 357.827C153.277 358.974 152.78 359.952 152.132 360.759C151.49 361.565 150.717 362.182 149.814 362.608C148.911 363.028 147.902 363.239 146.788 363.239C145.561 363.239 144.479 363.003 143.541 362.531C142.609 362.054 141.862 361.412 141.3 360.605C140.743 359.798 140.411 358.895 140.303 357.895H144.453C144.584 358.474 144.859 358.912 145.28 359.207C145.7 359.497 146.203 359.642 146.788 359.642C147.857 359.642 148.655 359.179 149.183 358.253C149.712 357.327 149.976 356.068 149.976 354.477H149.874C149.629 355 149.283 355.449 148.834 355.824C148.391 356.199 147.876 356.486 147.291 356.685C146.706 356.884 146.089 356.983 145.442 356.983C144.396 356.983 143.473 356.744 142.672 356.267C141.876 355.79 141.251 355.134 140.797 354.298C140.348 353.463 140.121 352.509 140.115 351.435C140.109 350.23 140.391 349.168 140.959 348.247C141.527 347.321 142.32 346.599 143.337 346.082C144.354 345.56 145.533 345.301 146.874 345.307ZM146.899 348.545C146.376 348.545 145.911 348.668 145.501 348.912C145.098 349.156 144.78 349.486 144.547 349.901C144.314 350.315 144.2 350.781 144.206 351.298C144.212 351.815 144.328 352.281 144.555 352.696C144.788 353.111 145.104 353.44 145.501 353.685C145.905 353.929 146.365 354.051 146.882 354.051C147.268 354.051 147.626 353.98 147.956 353.838C148.286 353.696 148.572 353.5 148.817 353.25C149.061 352.994 149.251 352.699 149.388 352.364C149.53 352.028 149.598 351.67 149.592 351.29C149.587 350.784 149.467 350.324 149.234 349.909C149.001 349.494 148.68 349.165 148.271 348.92C147.868 348.67 147.411 348.545 146.899 348.545ZM163.67 363.426C162.147 363.426 160.835 363.065 159.732 362.344C158.63 361.616 157.781 360.574 157.184 359.216C156.587 357.852 156.292 356.213 156.298 354.298C156.303 352.384 156.602 350.759 157.192 349.423C157.789 348.082 158.636 347.062 159.732 346.364C160.835 345.659 162.147 345.307 163.67 345.307C165.192 345.307 166.505 345.659 167.607 346.364C168.715 347.062 169.567 348.082 170.164 349.423C170.761 350.764 171.056 352.389 171.05 354.298C171.05 356.219 170.752 357.861 170.156 359.224C169.559 360.588 168.71 361.631 167.607 362.352C166.511 363.068 165.198 363.426 163.67 363.426ZM163.67 359.974C164.579 359.974 165.315 359.511 165.877 358.585C166.44 357.653 166.718 356.224 166.712 354.298C166.712 353.037 166.585 351.997 166.329 351.179C166.073 350.355 165.718 349.741 165.263 349.338C164.809 348.935 164.278 348.733 163.67 348.733C162.766 348.733 162.036 349.19 161.479 350.105C160.923 351.014 160.641 352.412 160.636 354.298C160.63 355.577 160.752 356.636 161.002 357.477C161.258 358.318 161.616 358.946 162.076 359.361C162.536 359.77 163.067 359.974 163.67 359.974ZM180.038 345.307C180.992 345.307 181.904 345.463 182.773 345.776C183.643 346.082 184.418 346.574 185.1 347.25C185.782 347.92 186.319 348.804 186.711 349.901C187.103 350.997 187.299 352.335 187.299 353.915C187.305 355.369 187.134 356.673 186.788 357.827C186.441 358.974 185.944 359.952 185.296 360.759C184.654 361.565 183.881 362.182 182.978 362.608C182.075 363.028 181.066 363.239 179.952 363.239C178.725 363.239 177.643 363.003 176.705 362.531C175.773 362.054 175.026 361.412 174.464 360.605C173.907 359.798 173.575 358.895 173.467 357.895H177.617C177.748 358.474 178.023 358.912 178.444 359.207C178.864 359.497 179.367 359.642 179.952 359.642C181.021 359.642 181.819 359.179 182.347 358.253C182.876 357.327 183.14 356.068 183.14 354.477H183.038C182.793 355 182.447 355.449 181.998 355.824C181.555 356.199 181.04 356.486 180.455 356.685C179.87 356.884 179.254 356.983 178.606 356.983C177.56 356.983 176.637 356.744 175.836 356.267C175.04 355.79 174.415 355.134 173.961 354.298C173.512 353.463 173.285 352.509 173.279 351.435C173.273 350.23 173.555 349.168 174.123 348.247C174.691 347.321 175.484 346.599 176.501 346.082C177.518 345.56 178.697 345.301 180.038 345.307ZM180.063 348.545C179.54 348.545 179.075 348.668 178.665 348.912C178.262 349.156 177.944 349.486 177.711 349.901C177.478 350.315 177.364 350.781 177.37 351.298C177.376 351.815 177.492 352.281 177.719 352.696C177.952 353.111 178.268 353.44 178.665 353.685C179.069 353.929 179.529 354.051 180.046 354.051C180.433 354.051 180.79 353.98 181.12 353.838C181.45 353.696 181.737 353.5 181.981 353.25C182.225 352.994 182.415 352.699 182.552 352.364C182.694 352.028 182.762 351.67 182.756 351.29C182.751 350.784 182.631 350.324 182.398 349.909C182.165 349.494 181.844 349.165 181.435 348.92C181.032 348.67 180.575 348.545 180.063 348.545Z" fill="#BC616E"/>
</svg>
